<?xml version="1.0" encoding="utf-8"?>
<!-- Generator: Adobe Illustrator 27.8.1, SVG Export Plug-In . SVG Version: 6.00 Build 0)  -->
<svg version="1.1" id="a" xmlns="http://www.w3.org/2000/svg" xmlns:xlink="http://www.w3.org/1999/xlink" x="0px" y="0px"
	 viewBox="0 0 383.3 383.4" style="enable-background:new 0 0 383.3 383.4;" xml:space="preserve">
<style type="text/css">
	.st0{fill:#C6C6C6;}
	.st1{fill:#FFFFFF;stroke:#000000;stroke-width:10;stroke-miterlimit:10;}
	.st2{stroke:#000000;stroke-width:10;stroke-miterlimit:10;}
</style>
<path d="M341.3,167.9c-6.7-1.8-13.4-3.3-20.1-4.7c-2-0.4-2.8-1.4-3.3-3.3c-3.2-12.9-8.2-25.1-15.2-36.4c-1-1.5-0.8-2.6,0.1-4.1
	c3.7-5.9,7.4-11.9,11.2-17.8c2.1-3.5,2-4.9-0.8-7.7c-8.4-8.4-16.8-16.9-25.3-25.3c-2.9-2.9-4.2-2.9-7.7-0.8
	c-5.9,3.7-11.9,7.3-17.8,11.2c-1.5,1-2.5,1-4.1,0c-11.4-7-23.6-12.1-36.7-15.3c-1.7-0.4-2.5-1.1-2.9-2.9c-1.5-6.9-3.2-13.9-4.8-20.8
	c-0.8-3.6-2-4.6-5.6-4.6c-12.1,0-24.2,0-36.3,0c-3.7,0-4.8,1-5.6,4.6c-1.6,6.8-3.3,13.6-4.7,20.5c-0.4,2-1.4,2.9-3.3,3.3
	c-12.9,3.1-25.1,8.2-36.4,15.2c-1.5,1-2.6,0.8-4.1-0.1c-6-3.8-12.1-7.6-18.1-11.3c-3.2-2-4.6-1.8-7.3,0.7
	C83.9,76.9,75.3,85.4,66.8,94c-2.6,2.6-2.7,4.1-0.7,7.3c3.7,6,7.5,12.1,11.3,18.1c1,1.5,1.1,2.5,0.1,4.1
	c-7.1,11.4-12.1,23.6-15.3,36.7c-0.4,1.7-1.1,2.5-2.9,2.9c-6.9,1.5-13.9,3.2-20.8,4.8c-3.6,0.8-4.6,2-4.6,5.6c0,12.1,0,24.2,0,36.3
	c0,3.7,1,4.8,4.6,5.7c6.9,1.6,13.9,3.3,20.8,4.8c1.8,0.4,2.4,1.1,2.9,2.9c3.2,13,8.2,25.3,15.3,36.7c1,1.5,0.9,2.6-0.1,4.1
	c-3.8,5.9-7.6,12.1-11.3,18.1c-2,3.2-1.8,4.7,0.7,7.3c8.6,8.6,17.1,17.1,25.7,25.7c2.6,2.5,4.2,2.7,7.3,0.7
	c6-3.7,12.1-7.5,18.1-11.3c1.5-0.9,2.5-1.1,4.1-0.1c11.4,7.1,23.6,12.1,36.7,15.3c1.7,0.4,2.5,1.1,2.9,2.9c1.5,6.8,3,13.7,4.8,20.5
	c0.5,1.8,2,3.3,3,5h41.5c1.1-1.6,2.5-3.2,3-5c1.8-6.8,3.3-13.6,4.8-20.5c0.4-1.8,1.2-2.4,2.9-2.9c13-3.2,25.3-8.2,36.7-15.3
	c1.5-1,2.6-0.9,4.1,0.1c5.9,3.8,12.1,7.6,18.1,11.3c3.2,2,4.7,1.8,7.3-0.7c8.6-8.6,17.1-17.1,25.7-25.7c2.5-2.5,2.7-4.2,0.7-7.3
	c-3.7-6-7.5-12.1-11.3-18.1c-0.9-1.5-1.1-2.5-0.1-4.1c7.1-11.4,12.1-23.6,15.3-36.7c0.5-2,1.4-2.5,3.2-2.9
	c6.8-1.5,13.4-2.9,20.1-4.8c1.8-0.5,3.3-2,5-3V171C344.6,169.9,343.1,168.4,341.3,167.9L341.3,167.9z M337.7,207.7
	c-7,1.6-13.8,3.4-20.6,4.7c-4.2,0.8-6.1,2.8-7,7c-2.9,13.6-8.2,26.3-15.9,38c-2,3.2-2.2,5.7-0.1,8.9c4,5.9,7.7,12.2,11.3,18
	c-7.6,7.6-15.1,15.1-22.7,22.7c-5.7-3.5-11.9-7.2-17.8-11.2c-3.3-2.2-5.9-2.1-9.1,0c-11.9,7.7-24.9,13.1-38.9,16.1
	c-3.3,0.7-5.1,2.4-5.7,5.7c-1.3,6.4-2.9,12.9-4.4,19.3c-0.2,0.8-0.4,1.5-0.7,2.4h-31.8c-1.5-6.8-3.4-13.6-4.7-20.5
	c-0.8-4.2-2.6-6.2-6.9-7.1c-13.6-2.9-26.3-8.2-38-15.9c-3.3-2.1-5.9-2.2-9.1,0c-5.3,3.6-10.8,6.8-16.2,10.2c-1.5,1-2.4,1.1-3.8-0.3
	c-6.4-6.5-12.7-12.9-19.2-19.2c-1.4-1.3-1.5-2.3-0.4-3.8c3.7-5.7,7.2-11.6,10.8-17.3c1.5-2.4,1.7-4.6,0.1-7
	c-8.1-12.5-13.9-26-16.9-40.6c-0.7-2.9-2.3-4.5-5.2-5.1c-7.3-1.5-14.6-3.3-22.1-5.1c0-10.3-0.1-20.3,0.1-30.3c0-0.7,1.4-1.8,2.3-2
	c6.7-1.7,13.4-3.3,20.1-4.8c2.6-0.6,4.1-2,4.6-4.6c3.2-14.8,9-28.7,17.3-41.4c1.5-2.3,1.1-4.3-0.2-6.5c-4.1-6.4-8.1-12.9-12-19.2
	c7.7-7.6,15.2-15,22.8-22.7c6.1,3.7,12.5,7.7,18.8,11.7c2.6,1.6,4.7,1.6,7.3,0c12.4-8.1,25.8-13.7,40.3-16.7
	c2.9-0.7,4.6-2.1,5.1-5.1c1.4-6.7,3.1-13.3,4.6-19.9c0.4-1.7,1.1-2.3,2.9-2.3c9.1,0.1,18.3,0.1,27.5,0c1.8,0,2.4,0.7,2.8,2.3
	c1.5,6.8,3.2,13.4,4.6,20.2c0.6,2.6,1.9,4.1,4.5,4.6c14.8,3.2,28.7,8.9,41.4,17.2c2.3,1.5,4.3,1.2,6.5-0.2
	c6.4-4.1,12.9-8.1,19.1-11.9c7.7,7.7,15.1,15.1,22.7,22.7c-3.7,5.9-7.4,12.2-11.5,18.3c-2,2.9-2,5.4-0.1,8.3
	c7.9,12.1,13.4,25.3,16.4,39.4c0.7,3.2,2.2,4.9,5.5,5.6c6.5,1.3,13,2.9,19.6,4.6c0.9,0.2,2.2,1.3,2.2,2
	C337.8,187.4,337.7,197.4,337.7,207.7L337.7,207.7z"/>
<path class="st0" d="M337.6,177.4c0-0.7-1.3-1.8-2.2-2c-6.5-1.6-13-3.3-19.6-4.6c-3.3-0.7-4.8-2.4-5.5-5.6
	c-2.9-14.2-8.5-27.3-16.4-39.4c-2-3-1.9-5.4,0.1-8.3c4.1-6.1,7.7-12.4,11.5-18.3c-7.7-7.7-15.1-15.1-22.7-22.7
	c-6.2,3.8-12.6,7.8-19.1,11.9c-2.2,1.4-4.2,1.6-6.5,0.2c-12.7-8.3-26.5-14-41.4-17.2c-2.6-0.6-3.9-2-4.5-4.6
	c-1.5-6.8-3.2-13.4-4.6-20.2c-0.3-1.7-1-2.4-2.8-2.4c-9.1,0.1-18.3,0.1-27.5,0c-1.8,0-2.4,0.6-2.9,2.3c-1.5,6.6-3.2,13.2-4.6,19.9
	c-0.7,3-2.2,4.6-5.1,5.1c-14.5,3-27.9,8.7-40.3,16.7c-2.5,1.6-4.7,1.6-7.3,0c-6.3-4.1-12.7-8-18.8-11.7c-7.7,7.6-15.2,15-22.8,22.7
	c3.9,6.3,7.8,12.7,11.9,19.2c1.4,2.2,1.7,4.2,0.2,6.5c-8.3,12.7-14.1,26.5-17.3,41.4c-0.6,2.6-2,4-4.6,4.6
	c-6.8,1.5-13.4,3.1-20.1,4.8c-0.9,0.2-2.3,1.3-2.3,2c-0.2,10-0.1,20.1-0.1,30.3c7.4,1.7,14.8,3.6,22.1,5.1c2.9,0.7,4.6,2.1,5.2,5.1
	c3,14.6,8.8,28,16.9,40.5c1.6,2.4,1.5,4.6-0.1,7c-3.7,5.7-7.2,11.6-10.8,17.3c-1,1.5-1,2.5,0.4,3.8c6.4,6.4,12.9,12.7,19.2,19.2
	c1.4,1.4,2.4,1.3,3.8,0.3c5.4-3.4,11-6.6,16.2-10.2c3.3-2.2,5.9-2.2,9.1,0c11.7,7.7,24.4,13,38,15.9c4.2,0.9,6.1,2.9,6.9,7.1
	c1.3,6.8,3.1,13.6,4.7,20.5h31.8c0.2-0.8,0.5-1.5,0.7-2.4c1.5-6.4,3.1-12.8,4.4-19.3c0.7-3.3,2.4-5.1,5.7-5.7
	c13.9-2.9,27-8.3,38.9-16.1c3.3-2.1,5.9-2.2,9.1,0c5.9,4,12.1,7.7,17.8,11.2c7.7-7.7,15.2-15.2,22.7-22.7c-3.6-5.8-7.3-12.1-11.3-18
	c-2.1-3.2-2-5.7,0.1-8.9c7.7-11.7,13-24.4,15.9-38c0.9-4.2,2.8-6.2,7-7c6.8-1.3,13.6-3.1,20.6-4.7
	C337.7,197.4,337.7,187.4,337.6,177.4L337.6,177.4z"/>
<circle class="st1" cx="190.2" cy="191.7" r="98.4"/>
<path class="st2" d="M190,123.7c37.5,0,67.8,30.4,67.8,67.8s-30.4,67.8-67.8,67.8"/>
</svg>
