<?xml version="1.0" encoding="utf-8"?>
<!-- Generator: Adobe Illustrator 27.8.1, SVG Export Plug-In . SVG Version: 6.00 Build 0)  -->
<svg version="1.1" id="a" xmlns="http://www.w3.org/2000/svg" xmlns:xlink="http://www.w3.org/1999/xlink" x="0px" y="0px"
	 viewBox="0 0 383.3 383.4" style="enable-background:new 0 0 383.3 383.4;" xml:space="preserve">
<style type="text/css">
	.st0{fill:#C6C6C6;}
	.st1{stroke:#000000;stroke-width:3;stroke-miterlimit:10;}
	.st2{fill:#FFFFFF;stroke:#000000;stroke-width:3;stroke-miterlimit:10;}
	.st3{fill:#5ECDF6;stroke:#000000;stroke-width:3;stroke-miterlimit:10;}
	.st4{fill:#E5827F;stroke:#000000;stroke-width:3;stroke-miterlimit:10;}
	.st5{fill:#AB87FF;stroke:#000000;stroke-width:3;stroke-miterlimit:10;}
	.st6{fill:#68E0A1;stroke:#000000;stroke-width:3;stroke-miterlimit:10;}
	.st7{fill:#FAE571;stroke:#000000;stroke-width:3;stroke-miterlimit:10;}
</style>
<path d="M355.1,166c-7.2-1.9-14.5-3.6-21.8-5.1c-2.2-0.4-3-1.5-3.5-3.5c-3.4-13.9-8.9-27.2-16.5-39.3c-1.1-1.7-0.9-2.8,0.1-4.4
	c4.1-6.3,8-12.9,12.1-19.3c2.3-3.8,2.2-5.3-0.9-8.4c-9.1-9.1-18.2-18.2-27.3-27.3c-3.1-3.1-4.6-3.2-8.4-0.9
	c-6.4,4-12.9,7.9-19.3,12.1c-1.6,1.1-2.7,1.1-4.4,0c-12.3-7.6-25.6-13-39.7-16.6c-1.9-0.4-2.7-1.2-3.2-3.1c-1.6-7.5-3.4-15-5.2-22.5
	c-0.9-3.9-2.1-4.9-6.1-4.9c-13.1,0-26.2,0-39.2,0c-4,0-5.2,1.1-6.1,5c-1.8,7.4-3.5,14.7-5.1,22.1c-0.4,2.2-1.5,3.1-3.5,3.5
	c-13.9,3.3-27.2,8.8-39.3,16.4c-1.7,1.1-2.8,0.9-4.4-0.1c-6.5-4.1-13-8.2-19.6-12.3c-3.4-2.1-5-1.9-7.8,0.8
	C76.7,67.5,67.5,76.7,58.2,86c-2.8,2.8-2.9,4.4-0.8,7.8c4.1,6.5,8.1,13.1,12.3,19.6c1.1,1.6,1.1,2.7,0.1,4.4
	c-7.7,12.3-13.1,25.6-16.6,39.7c-0.4,1.9-1.2,2.7-3.1,3.2c-7.5,1.7-15,3.4-22.5,5.2c-3.9,0.9-4.9,2.1-4.9,6.1c0,13,0,26.2,0,39.2
	c0,4,1.1,5.2,4.9,6.2c7.5,1.8,15,3.5,22.5,5.2c1.9,0.4,2.6,1.2,3.2,3.2c3.4,14.1,8.9,27.3,16.6,39.7c1.1,1.7,1,2.8-0.1,4.4
	c-4.1,6.4-8.2,13-12.3,19.6c-2.1,3.4-1.9,5.1,0.8,7.8c9.3,9.3,18.5,18.5,27.8,27.8c2.8,2.7,4.5,2.9,7.8,0.8
	c6.5-4.1,13-8.1,19.6-12.3c1.6-1,2.7-1.2,4.4-0.1c12.3,7.7,25.6,13.1,39.7,16.6c1.9,0.4,2.7,1.2,3.2,3.2c1.6,7.4,3.3,14.8,5.2,22.1
	c0.5,1.9,2.1,3.6,3.3,5.4h44.9c1.1-1.8,2.7-3.4,3.3-5.4c1.9-7.3,3.6-14.7,5.2-22.1c0.4-1.9,1.3-2.6,3.2-3.1
	c14-3.4,27.3-8.9,39.7-16.6c1.7-1.1,2.8-1,4.4,0.1c6.4,4.1,13,8.2,19.6,12.3c3.4,2.1,5.1,1.9,7.8-0.8c9.3-9.3,18.5-18.5,27.8-27.8
	c2.7-2.7,2.9-4.5,0.8-7.8c-4.1-6.5-8.1-13.1-12.3-19.6c-1-1.6-1.1-2.7-0.1-4.4c7.7-12.3,13.1-25.6,16.6-39.7
	c0.5-2.1,1.5-2.7,3.4-3.2c7.3-1.6,14.5-3.2,21.8-5.2c1.9-0.5,3.6-2.1,5.4-3.3v-44.9C358.7,168.1,357.1,166.5,355.1,166L355.1,166z
	 M351.3,209c-7.6,1.8-14.9,3.7-22.3,5.1c-4.6,0.9-6.6,3-7.6,7.6c-3.2,14.7-8.9,28.5-17.2,41.1c-2.2,3.4-2.4,6.2-0.1,9.6
	c4.3,6.4,8.3,13.2,12.3,19.5c-8.2,8.2-16.3,16.3-24.6,24.6c-6.2-3.8-12.9-7.8-19.3-12.1c-3.5-2.4-6.3-2.3-9.9,0
	c-12.9,8.4-27,14.2-42.1,17.4c-3.6,0.8-5.5,2.6-6.2,6.2c-1.4,7-3.2,13.9-4.8,20.9c-0.2,0.9-0.4,1.7-0.7,2.6h-34.4
	c-1.7-7.4-3.7-14.7-5.1-22.1c-0.9-4.5-2.8-6.7-7.5-7.7c-14.7-3.1-28.5-8.9-41.1-17.2c-3.5-2.3-6.3-2.4-9.9,0
	c-5.7,3.9-11.7,7.3-17.5,11c-1.7,1.1-2.6,1.1-4.1-0.4c-6.9-7.1-13.8-13.9-20.7-20.8c-1.5-1.4-1.6-2.5-0.4-4.1
	c4-6.2,7.8-12.5,11.7-18.7c1.7-2.6,1.9-4.9,0.1-7.6c-8.7-13.5-15-28.1-18.2-43.9c-0.7-3.2-2.5-4.8-5.6-5.6
	c-7.9-1.7-15.8-3.6-23.9-5.6c0-11.1-0.1-22,0.1-32.8c0-0.8,1.5-1.9,2.5-2.2c7.2-1.9,14.5-3.5,21.8-5.2c2.8-0.6,4.4-2.1,5-4.9
	c3.4-16,9.7-31,18.7-44.8c1.6-2.5,1.2-4.7-0.3-7.1c-4.4-7-8.7-13.9-13-20.7c8.3-8.2,16.4-16.2,24.7-24.5c6.6,4.1,13.5,8.3,20.4,12.7
	c2.8,1.8,5.1,1.8,7.9,0c13.4-8.7,27.9-14.8,43.5-18.1c3.2-0.7,4.9-2.3,5.6-5.6c1.5-7.2,3.3-14.4,4.9-21.5c0.4-1.9,1.1-2.5,3.1-2.5
	c9.9,0.1,19.7,0.1,29.7,0c1.9,0,2.6,0.7,3,2.5c1.6,7.3,3.4,14.5,5,21.9c0.6,2.8,2,4.4,4.8,5c16,3.4,31,9.6,44.8,18.6
	c2.5,1.6,4.7,1.3,7.1-0.2c7-4.4,13.9-8.7,20.6-12.9c8.3,8.3,16.3,16.3,24.6,24.6c-4,6.4-8,13.2-12.4,19.8c-2.1,3.2-2.1,5.8-0.1,9
	c8.6,13.1,14.5,27.3,17.7,42.7c0.7,3.4,2.4,5.3,5.9,6.1c7.1,1.4,14.1,3.2,21.2,4.9c1,0.3,2.4,1.4,2.4,2.2
	C351.3,187,351.3,197.9,351.3,209L351.3,209z"/>
<path class="st0" d="M351.2,176.2c0-0.8-1.4-1.9-2.4-2.2c-7.1-1.8-14.1-3.5-21.2-4.9c-3.5-0.7-5.2-2.6-5.9-6.1
	c-3.2-15.3-9.2-29.5-17.7-42.7c-2.1-3.3-2-5.8,0.1-9c4.4-6.6,8.4-13.4,12.4-19.8c-8.3-8.3-16.3-16.3-24.6-24.6
	c-6.7,4.1-13.7,8.5-20.6,12.9c-2.4,1.5-4.6,1.8-7.1,0.2c-13.8-9-28.7-15.2-44.8-18.6c-2.8-0.6-4.2-2.2-4.8-5
	c-1.6-7.3-3.4-14.5-5-21.9c-0.4-1.9-1.1-2.6-3-2.6c-9.9,0.1-19.7,0.1-29.7,0c-1.9,0-2.6,0.6-3.1,2.5c-1.6,7.1-3.4,14.3-4.9,21.5
	c-0.7,3.3-2.4,4.9-5.6,5.6c-15.7,3.3-30.1,9.4-43.5,18.1c-2.7,1.8-5.1,1.8-7.9,0c-6.8-4.4-13.8-8.6-20.4-12.7
	C83.2,75,75.1,83,66.8,91.3C71,98.1,75.2,105,79.6,112c1.5,2.4,1.9,4.6,0.3,7.1c-9,13.8-15.3,28.7-18.7,44.8c-0.6,2.8-2.2,4.3-5,4.9
	c-7.3,1.6-14.5,3.3-21.8,5.2c-1,0.3-2.5,1.4-2.5,2.2C31.8,187,31.9,198,31.9,209c8,1.9,16,3.9,23.9,5.6c3.2,0.7,4.9,2.3,5.6,5.6
	c3.3,15.8,9.5,30.3,18.2,43.8c1.8,2.6,1.6,4.9-0.1,7.6c-4,6.2-7.8,12.5-11.7,18.7c-1.1,1.7-1.1,2.7,0.4,4.1
	c7,6.9,13.9,13.8,20.7,20.8c1.5,1.5,2.6,1.4,4.1,0.4c5.8-3.7,11.9-7.1,17.5-11c3.5-2.4,6.3-2.4,9.9,0c12.6,8.3,26.4,14,41.1,17.2
	c4.6,1,6.6,3.2,7.5,7.7c1.4,7.4,3.3,14.7,5.1,22.1h34.4c0.3-0.9,0.5-1.7,0.7-2.6c1.6-7,3.3-13.8,4.8-20.9c0.7-3.6,2.6-5.5,6.2-6.2
	c15.1-3.2,29.2-9,42.1-17.4c3.5-2.3,6.3-2.4,9.9,0c6.4,4.3,13.1,8.3,19.3,12.1c8.4-8.4,16.4-16.4,24.6-24.6
	c-3.9-6.3-7.8-13-12.3-19.5c-2.3-3.4-2.2-6.2,0.1-9.6c8.3-12.6,14-26.4,17.2-41.1c1-4.6,3-6.7,7.6-7.6c7.4-1.4,14.7-3.3,22.3-5.1
	C351.3,197.9,351.3,187,351.2,176.2L351.2,176.2z M269,265.9c-18.1,19.2-40.4,30.2-66.6,33.3c-4,0.4-7.9,0.5-12,0.8l0,0
	c-10.8-0.1-21.3-1.7-31.7-4.8c-19.7-5.9-27.9-29.4-16.3-46.4c3.6-5.3,7.5-10.2,11.2-15.4c4.1-5.6,4.8-11.8,1.5-18
	c-3.4-6.3-8.9-9.5-16.2-9.3c-1.8,0.1-3.5,0.5-5.2,1.1c-7.8,2.3-15.3,4.8-23.1,7c-13,3.8-26-4.2-27.5-17.5
	c-0.7-6.1-0.2-12.4,0.9-18.5c6.2-36.8,26.4-63.4,59.5-80c17.7-8.8,36.7-12.1,56.4-10.2c32.5,3.1,58.6,17.9,77.8,44.3
	C307.4,173,303.7,229.3,269,265.9L269,265.9z"/>
<path class="st1" d="M277.8,132.3C258.6,105.9,232.6,91,200,87.9c-19.7-1.9-38.7,1.4-56.4,10.2c-33.2,16.6-53.3,43.2-59.5,80
	c-1.1,6.1-1.6,12.4-0.9,18.5c1.6,13.3,14.6,21.3,27.5,17.5c7.8-2.3,15.4-4.7,23.1-7c1.7-0.5,3.4-1,5.2-1.1
	c7.2-0.3,12.8,2.8,16.2,9.3c3.3,6.2,2.6,12.3-1.5,18c-3.7,5.2-7.7,10.1-11.2,15.4c-11.6,17.1-3.3,40.6,16.3,46.4
	c10.3,3.1,20.9,4.8,31.7,4.8l0,0c4-0.3,8-0.4,12-0.8c26.2-3.1,48.5-14.2,66.6-33.3C303.7,229.3,307.4,173,277.8,132.3L277.8,132.3z
	 M212.5,291.4c-7.1,1.5-14.5,2.1-21.8,2.4h-0.1c-0.2,0-0.4,0-0.4,0c-10.1,0.1-20-1.4-29.6-4.4c-15.9-4.8-22.4-23.5-13-37.2
	c3.6-5.2,7.6-10.2,11.2-15.4c9.8-13.8,2.5-32.6-14.1-36.1c-4.1-0.9-8.1-0.6-12.1,0.6c-7.7,2.4-15.4,4.8-23.1,7.1
	c-9.7,2.9-19.5-2.8-20.4-12.3c-0.4-4.6-0.1-9.3,0.4-13.9c3-24.2,13.6-44.7,31.5-61.2c15.8-14.5,34.4-23.4,55.7-26
	c34.1-4.1,63.5,6,87.4,30.8c14.9,15.5,23.7,34.1,26.4,55.4C297.3,232.2,263.2,280.6,212.5,291.4z M190.2,293.8h0.4
	c0.1,0,0.1,0,0.2,0C190.5,293.8,190.2,293.8,190.2,293.8L190.2,293.8z"/>
<path class="st2" d="M290.7,180.9c-2.7-21.3-11.5-40-26.4-55.4c-23.9-24.8-53.2-34.9-87.4-30.8c-21.3,2.6-39.9,11.5-55.7,26.1
	c-17.9,16.6-28.5,37-31.5,61.2c-0.6,4.6-0.9,9.3-0.4,13.9c0.9,9.5,10.7,15.3,20.4,12.3c7.8-2.3,15.4-4.7,23.1-7.1
	c4-1.2,8-1.5,12.1-0.6c16.6,3.5,23.9,22.3,14.1,36.1c-3.7,5.2-7.6,10.2-11.2,15.4c-9.4,13.7-2.9,32.4,13,37.2
	c9.6,3,19.6,4.4,29.6,4.4c0,0,0.4,0,0.4,0h0.1c7.3-0.3,14.6-0.9,21.8-2.4C263.2,280.6,297.3,232.2,290.7,180.9L290.7,180.9z
	 M134.7,183.3c-11,0.1-20-9-20-20.1l0,0c0-11.1,8.9-20,20-20.1c11-0.1,20,9,20,20.1C154.8,174.4,145.9,183.3,134.7,183.3
	L134.7,183.3z M186.6,276.3c-10.8-0.1-19.8-9.2-19.7-20.1c0-11,9-20,20.1-19.9c11.1,0,20,8.9,19.9,20
	C206.8,267.5,197.8,276.4,186.6,276.3z M190.2,147.1c-11,0-19.9-9-19.9-20.1s9-20,20.1-19.9c11.1,0,20,9,19.9,20.1
	C210.3,138.3,201.4,147.1,190.2,147.1L190.2,147.1z M246.9,247.9c-11-0.1-19.8-9.2-19.7-20.4c0.1-10.9,9.1-19.7,20.1-19.7
	c11.1,0,20,9,19.9,20.1C267.2,239.2,258.2,248,246.9,247.9L246.9,247.9z M247.1,179.9c-11.1,0-20-9.2-19.9-20.4
	c0.1-10.9,9.2-19.7,20.1-19.7c11.1,0.1,19.9,9,19.9,20.1l0,0C267.1,171.1,258.2,180,247.1,179.9L247.1,179.9z"/>
<path class="st1" d="M134.7,143.2c-11.1,0.1-20,9-20,20.1l0,0c0,11.1,9,20.1,20,20.1c11.1-0.1,20-8.9,20-20
	C154.8,152.3,145.8,143.2,134.7,143.2L134.7,143.2z M144.5,173.2c-0.4,0.4-0.6,0.6-1,0.9c-2.4,2-5.5,3.2-8.8,3.2
	c-1,0-1.9-0.1-2.7-0.3c-0.4-0.1-0.9-0.2-1.3-0.4c-0.9-0.3-1.7-0.6-2.5-1.1c-0.8-0.4-1.5-1-2.2-1.5c-0.4-0.3-0.7-0.6-1-0.9
	c-2.5-2.5-4.1-6-4.1-9.8c0-2.4,0.6-4.7,1.7-6.7c0.2-0.4,0.4-0.8,0.7-1.1c0.1-0.2,0.3-0.4,0.4-0.5c0.3-0.4,0.5-0.7,0.8-1.1
	c0.2-0.2,0.3-0.4,0.4-0.5c2.5-2.6,5.9-4.1,9.6-4.1c7.7-0.1,14,6.1,14.1,13.8C148.7,167.1,147.1,170.6,144.5,173.2z"/>
<path class="st1" d="M247.2,207.9c-11,0-20,8.8-20.1,19.7c-0.1,11.1,8.7,20.2,19.7,20.4c11.3,0.1,20.3-8.7,20.3-19.9
	C267.2,216.8,258.3,207.9,247.2,207.9z M260.3,232.3c-0.2,0.6-0.4,1.2-0.8,1.9c-0.2,0.4-0.4,0.8-0.6,1.1c-0.3,0.4-0.4,0.7-0.8,1.1
	l0,0c-0.3,0.4-0.5,0.7-0.9,1c-1.9,2-4.5,3.5-7.5,4.1c-1.1,0.2-2.1,0.3-3.2,0.3c-7.6-0.2-13.5-6.5-13.3-14.3c0-1.4,0.3-2.7,0.7-4.1
	c0.7-2.1,1.9-4,3.4-5.5c2.6-2.5,6.1-4.1,10-3.9l0,0c2.1,0,4.1,0.5,5.9,1.4l0,0c1.2,0.6,2.3,1.3,3.3,2.2c0.2,0.2,0.4,0.3,0.4,0.4
	c2.6,2.6,4.1,6.2,4,10.1C261,229.7,260.7,231.1,260.3,232.3L260.3,232.3z"/>
<path class="st1" d="M186.9,236.3c-11.1-0.1-20.1,8.9-20.1,19.9c0,10.9,8.9,20,19.7,20.1c11.2,0.1,20.2-8.8,20.3-20
	C206.9,245.2,198,236.3,186.9,236.3z M194.6,267.8c-0.4,0.3-0.8,0.4-1.1,0.7c-0.4,0.2-0.8,0.4-1.2,0.6c-0.2,0.1-0.4,0.2-0.6,0.3
	c-0.4,0.2-0.9,0.3-1.3,0.4c-1.1,0.3-2.3,0.4-3.4,0.4c-3.8,0-7.3-1.5-9.8-4.1c-0.4-0.4-0.6-0.6-0.9-1c-0.4-0.5-0.8-1.1-1.1-1.6
	c-0.3-0.4-0.4-0.8-0.6-1.1c-0.2-0.4-0.4-0.7-0.4-1.1c-0.1-0.3-0.2-0.5-0.3-0.8c-0.1-0.4-0.3-0.8-0.4-1.2c0-0.1,0-0.2-0.1-0.3
	c-0.1-0.4-0.2-0.8-0.2-1.2c-0.1-0.4-0.1-1-0.1-1.4c0-1.5,0.2-2.9,0.6-4.2c0.1-0.2,0.2-0.4,0.2-0.6c0.5-1.5,1.3-2.9,2.3-4.1
	c0.3-0.4,0.5-0.7,0.9-1c1.4-1.4,3.1-2.6,5-3.3c0.2-0.1,0.4-0.2,0.6-0.2c1.3-0.4,2.7-0.6,4.1-0.6c3.3,0,6.3,1.1,8.6,3
	c0.3,0.2,0.5,0.4,0.8,0.7c2.8,2.6,4.6,6.3,4.6,10.4C200.7,261.1,198.3,265.3,194.6,267.8L194.6,267.8z"/>
<path class="st1" d="M190.4,107.1c-11.1,0-20.1,8.9-20.1,19.9c0,11.1,8.9,20.1,19.9,20.1s20-8.8,20.1-19.9
	C210.4,116.1,201.5,107.2,190.4,107.1L190.4,107.1z M200.1,137c-0.4,0.4-1,0.9-1.5,1.3c-2.4,1.8-5.3,2.7-8.5,2.7
	c-1.4,0-2.8-0.3-4.1-0.6c-0.2-0.1-0.4-0.2-0.6-0.2l0,0c-0.4-0.2-0.8-0.4-1.2-0.5s-0.8-0.4-1.1-0.6c-1-0.6-1.8-1.2-2.6-2
	c-2.5-2.5-4-6-4-9.9c0-1.2,0.2-2.4,0.4-3.4c0.3-0.9,0.5-1.8,1-2.6c0.2-0.4,0.4-0.8,0.6-1.1c0.2-0.4,0.4-0.7,0.7-1.1
	c0.4-0.5,0.8-1.1,1.3-1.5c2.5-2.5,5.9-4,9.8-4c1.7,0,3.3,0.3,4.8,0.8c0.4,0.2,0.8,0.4,1.2,0.5c1,0.5,1.9,1.1,2.8,1.8
	c0.4,0.3,0.7,0.6,1,0.9c2.6,2.5,4.1,6,4.1,9.9C204.1,131,202.6,134.5,200.1,137L200.1,137z"/>
<path class="st1" d="M267.2,160c0.1-11.1-8.7-20-19.9-20.1c-11-0.1-20,8.7-20.1,19.7c-0.1,11.2,8.8,20.4,19.9,20.4
	C258.2,180,267.2,171.1,267.2,160L267.2,160L267.2,160z M256.9,169.7c-2.6,2.6-6.1,4.1-10,4.1c-2.6,0-5-0.8-7.1-2
	c-1-0.6-1.9-1.2-2.6-2c-2.5-2.6-4.1-6-4-9.9l0,0c0-2.9,0.9-5.6,2.4-7.8c0.3-0.4,0.5-0.7,0.8-1.1c0.3-0.4,0.5-0.7,0.9-1
	c2.5-2.5,5.9-4.1,9.8-4.1c1,0,1.9,0.1,2.9,0.3c0.9,0.2,1.8,0.4,2.6,0.8c0.6,0.3,1.2,0.5,1.8,0.9c0.8,0.4,1.5,1,2.1,1.6
	c0.2,0.2,0.4,0.4,0.4,0.4c0.6,0.6,1.2,1.3,1.7,2c0.3,0.4,0.4,0.8,0.7,1.1c0.1,0.2,0.2,0.4,0.3,0.6c0.2,0.4,0.4,0.8,0.5,1.2
	c0.1,0.2,0.2,0.4,0.2,0.6c0.1,0.2,0.1,0.4,0.2,0.4c0.4,1.2,0.4,2.5,0.4,3.7C261,163.8,259.5,167.2,256.9,169.7L256.9,169.7z"/>
<path class="st3" d="M120.9,163.4c-0.1-7.7,6.1-13.9,13.7-14c7.7-0.1,14,6.1,14,13.8c0.1,7.8-6.2,14-13.8,14S121,171,120.9,163.4z"
	/>
<path class="st4" d="M247.4,214.1c7.8,0.2,13.8,6.4,13.6,14.3c-0.2,7.8-6.5,13.7-14.4,13.5c-7.6-0.2-13.5-6.5-13.3-14.3
	C233.5,219.9,239.7,213.9,247.4,214.1L247.4,214.1L247.4,214.1z"/>
<path class="st5" d="M186.8,270.2c-7.7,0-13.8-6.2-13.9-13.8c-0.1-7.8,6.2-14,13.8-14c7.8,0,14,6.3,13.9,14
	C200.7,264,194.5,270.2,186.8,270.2z"/>
<path class="st6" d="M176.4,127c0.1-7.7,6.2-13.8,13.8-13.8c7.8,0,13.9,6.2,13.8,13.9c0,7.8-6.3,13.8-14,13.8
	C182.4,140.8,176.4,134.8,176.4,127L176.4,127L176.4,127z"/>
<path class="st7" d="M233.3,159.8c0-7.7,6.2-13.8,13.8-13.8c7.7-0.1,13.9,6.3,13.9,14c0,7.8-6.3,13.9-14,13.8
	C239.4,173.7,233.3,167.5,233.3,159.8L233.3,159.8L233.3,159.8z"/>
</svg>
