<?xml version="1.0" encoding="utf-8"?>
<!-- Generator: Adobe Illustrator 27.8.1, SVG Export Plug-In . SVG Version: 6.00 Build 0)  -->
<svg version="1.1" id="a" xmlns="http://www.w3.org/2000/svg" xmlns:xlink="http://www.w3.org/1999/xlink" x="0px" y="0px"
	 viewBox="0 0 383.3 383.4" style="enable-background:new 0 0 383.3 383.4;" xml:space="preserve">
<style type="text/css">
	.st0{fill:#C6C6C6;}
	.st1{stroke:#000000;stroke-width:3;stroke-miterlimit:10;}
	.st2{fill:#FFFFFF;stroke:#000000;stroke-width:3;stroke-miterlimit:10;}
	.st3{fill:#5ECDF6;stroke:#000000;stroke-width:3;stroke-miterlimit:10;}
	.st4{fill:#E5827F;stroke:#000000;stroke-width:3;stroke-miterlimit:10;}
	.st5{fill:#AB87FF;stroke:#000000;stroke-width:3;stroke-miterlimit:10;}
	.st6{fill:#68E0A1;stroke:#000000;stroke-width:3;stroke-miterlimit:10;}
	.st7{fill:#FAE571;stroke:#000000;stroke-width:3;stroke-miterlimit:10;}
</style>
<path d="M377.2,162.5c-8.2-2.2-16.4-4.1-24.7-5.8c-2.5-0.5-3.4-1.7-4-4c-3.9-15.8-10.1-30.8-18.7-44.6c-1.2-1.9-1-3.2,0.1-5
	c4.6-7.2,9.1-14.6,13.7-21.9c2.6-4.3,2.5-6-1-9.5c-10.3-10.3-20.6-20.7-31-31c-3.5-3.5-5.2-3.6-9.5-1c-7.3,4.5-14.6,9-21.9,13.7
	c-1.8,1.2-3.1,1.2-5,0c-14-8.6-29-14.8-45-18.8c-2.1-0.5-3.1-1.4-3.6-3.5c-1.8-8.5-3.9-17-5.9-25.5c-1-4.4-2.4-5.6-6.9-5.6
	c-14.9,0-29.7,0-44.5,0c-4.5,0-5.9,1.2-6.9,5.7c-2,8.4-4,16.7-5.8,25.1c-0.5,2.5-1.7,3.5-4,4c-15.8,3.8-30.8,10-44.6,18.6
	c-1.9,1.2-3.2,1-5-0.1c-7.4-4.7-14.8-9.3-22.2-13.9c-3.9-2.4-5.7-2.2-8.9,0.9c-10.5,10.5-21,21-31.5,31.5c-3.2,3.2-3.3,5-0.9,8.9
	c4.6,7.4,9.2,14.9,13.9,22.2c1.2,1.8,1.3,3.1,0.1,5c-8.7,14-14.9,29-18.8,45c-0.5,2.1-1.4,3.1-3.5,3.6c-8.5,1.9-17,3.9-25.5,5.9
	c-4.4,1-5.6,2.4-5.6,6.9c0,14.8,0,29.7,0,44.5c0,4.5,1.2,5.9,5.6,7c8.5,2,17,4,25.5,5.9c2.2,0.5,3,1.4,3.6,3.6
	c3.9,16,10.1,31,18.8,45c1.2,1.9,1.1,3.2-0.1,5c-4.7,7.3-9.3,14.8-13.9,22.2c-2.4,3.9-2.2,5.8,0.9,8.9c10.5,10.5,21,21,31.5,31.5
	c3.2,3.1,5.1,3.3,8.9,0.9c7.4-4.6,14.8-9.2,22.2-13.9c1.8-1.1,3.1-1.4,5-0.1c14,8.7,29,14.9,45,18.8c2.1,0.5,3.1,1.4,3.6,3.6
	c1.8,8.4,3.7,16.8,5.9,25.1c0.6,2.2,2.4,4.1,3.7,6.1h50.9c1.3-2,3.1-3.9,3.7-6.1c2.2-8.3,4.1-16.7,5.9-25.1c0.5-2.2,1.5-3,3.6-3.5
	c15.9-3.9,31-10.1,45-18.8c1.9-1.2,3.2-1.1,5,0.1c7.3,4.7,14.8,9.3,22.2,13.9c3.9,2.4,5.8,2.2,8.9-0.9c10.5-10.5,21-21,31.5-31.5
	c3.1-3.1,3.3-5.1,0.9-8.9c-4.6-7.4-9.2-14.9-13.9-22.2c-1.1-1.8-1.3-3.1-0.1-5c8.7-14,14.9-29,18.8-45c0.6-2.4,1.7-3.1,3.9-3.6
	c8.3-1.8,16.5-3.6,24.7-5.9c2.2-0.6,4.1-2.4,6.1-3.7v-50.9C381.3,164.9,379.4,163.1,377.2,162.5L377.2,162.5z M372.8,211.3
	c-8.6,2-16.9,4.2-25.3,5.8c-5.2,1-7.5,3.4-8.6,8.6c-3.6,16.7-10.1,32.3-19.5,46.6c-2.5,3.9-2.7,7-0.1,10.9c4.9,7.3,9.4,15,13.9,22.1
	c-9.3,9.3-18.5,18.5-27.9,27.9c-7-4.3-14.6-8.8-21.9-13.7c-4-2.7-7.2-2.6-11.2,0c-14.6,9.5-30.6,16.1-47.7,19.7
	c-4.1,0.9-6.2,2.9-7,7c-1.6,7.9-3.6,15.8-5.4,23.7c-0.2,1-0.5,1.9-0.8,2.9h-39c-1.9-8.4-4.2-16.7-5.8-25.1c-1-5.1-3.2-7.6-8.5-8.7
	c-16.7-3.5-32.3-10.1-46.6-19.5c-4-2.6-7.2-2.7-11.2,0c-6.5,4.4-13.3,8.3-19.9,12.5c-1.9,1.2-3,1.3-4.7-0.4
	c-7.8-8-15.6-15.8-23.5-23.6c-1.7-1.6-1.8-2.8-0.5-4.7c4.5-7,8.8-14.2,13.3-21.2c1.9-3,2.1-5.6,0.1-8.6c-9.9-15.3-17-31.9-20.7-49.8
	c-0.8-3.6-2.8-5.5-6.4-6.3c-9-1.9-17.9-4.1-27.1-6.3c0-12.6-0.1-24.9,0.1-37.2c0-0.9,1.7-2.2,2.8-2.5c8.2-2.1,16.5-4,24.7-5.9
	c3.2-0.7,5-2.4,5.7-5.6c3.9-18.2,11-35.2,21.2-50.8c1.8-2.8,1.4-5.3-0.3-8c-5-7.9-9.9-15.8-14.7-23.5c9.4-9.3,18.6-18.4,28-27.8
	c7.5,4.6,15.3,9.4,23.1,14.4c3.2,2,5.8,2,9,0c15.2-9.9,31.7-16.8,49.4-20.5c3.6-0.8,5.6-2.6,6.3-6.3c1.7-8.2,3.8-16.3,5.6-24.4
	c0.5-2.1,1.3-2.8,3.5-2.8c11.2,0.1,22.4,0.1,33.7,0c2.2,0,3,0.8,3.4,2.8c1.8,8.3,3.9,16.5,5.7,24.8c0.7,3.2,2.3,5,5.5,5.7
	c18.2,3.9,35.2,10.9,50.8,21.1c2.8,1.8,5.3,1.5,8-0.2c7.9-5,15.8-9.9,23.4-14.6c9.4,9.4,18.5,18.5,27.9,27.9
	c-4.5,7.3-9.1,15-14.1,22.5c-2.4,3.6-2.4,6.6-0.1,10.2c9.7,14.9,16.4,31,20.1,48.4c0.8,3.9,2.7,6,6.7,6.9c8,1.6,16,3.6,24,5.6
	c1.1,0.3,2.7,1.6,2.7,2.5C372.9,186.4,372.8,198.7,372.8,211.3L372.8,211.3z"/>
<path class="st0" d="M372.7,174.1c0-0.9-1.6-2.2-2.7-2.5c-8-2-16-4-24-5.6c-4-0.8-5.9-2.9-6.7-6.9c-3.6-17.4-10.4-33.5-20.1-48.4
	c-2.4-3.7-2.3-6.6,0.1-10.2c5-7.5,9.5-15.2,14.1-22.5c-9.4-9.4-18.5-18.5-27.9-27.9c-7.6,4.7-15.5,9.6-23.4,14.6
	c-2.7,1.7-5.2,2-8,0.2c-15.6-10.2-32.5-17.2-50.8-21.1c-3.2-0.7-4.8-2.5-5.5-5.7c-1.8-8.3-3.9-16.5-5.7-24.8
	c-0.4-2.1-1.2-2.9-3.4-2.9c-11.2,0.1-22.4,0.1-33.7,0c-2.2,0-3,0.7-3.5,2.8c-1.8,8.1-3.9,16.2-5.6,24.4c-0.8,3.7-2.7,5.6-6.3,6.3
	c-17.8,3.7-34.2,10.7-49.4,20.5c-3.1,2-5.8,2-9,0c-7.7-5-15.6-9.8-23.1-14.4c-9.4,9.3-18.6,18.4-28,27.8c4.8,7.7,9.6,15.6,14.6,23.5
	c1.7,2.7,2.1,5.2,0.3,8c-10.2,15.6-17.3,32.5-21.2,50.8c-0.7,3.2-2.5,4.9-5.7,5.6c-8.3,1.8-16.5,3.8-24.7,5.9
	c-1.1,0.3-2.8,1.6-2.8,2.5c-0.2,12.3-0.1,24.7-0.1,37.2c9.1,2.1,18.1,4.4,27.1,6.3c3.6,0.8,5.6,2.6,6.4,6.3
	c3.7,17.9,10.8,34.4,20.7,49.7c2,3,1.8,5.6-0.1,8.6c-4.5,7-8.8,14.2-13.3,21.2c-1.2,1.9-1.2,3.1,0.5,4.7
	c7.9,7.8,15.8,15.6,23.5,23.6c1.7,1.7,2.9,1.6,4.7,0.4c6.6-4.2,13.5-8.1,19.9-12.5c4-2.7,7.2-2.7,11.2,0
	c14.3,9.4,29.9,15.9,46.6,19.5c5.2,1.1,7.5,3.6,8.5,8.7c1.6,8.4,3.8,16.7,5.8,25.1h39c0.3-1,0.6-1.9,0.8-2.9
	c1.8-7.9,3.8-15.7,5.4-23.7c0.8-4.1,3-6.2,7-7c17.1-3.6,33.1-10.2,47.7-19.7c4-2.6,7.2-2.7,11.2,0c7.3,4.9,14.9,9.4,21.9,13.7
	c9.5-9.5,18.6-18.6,27.9-27.9c-4.4-7.1-8.9-14.8-13.9-22.1c-2.6-3.9-2.5-7,0.1-10.9c9.4-14.3,15.9-29.9,19.5-46.6
	c1.1-5.2,3.4-7.6,8.6-8.6c8.4-1.6,16.7-3.8,25.3-5.8C372.8,198.7,372.8,186.4,372.7,174.1L372.7,174.1z M279.5,275.9
	c-20.5,21.8-45.8,34.3-75.5,37.8c-4.5,0.5-9,0.6-13.6,0.9h0c-12.3-0.1-24.2-1.9-36-5.5c-22.3-6.7-31.7-33.3-18.5-52.6
	c4.1-6,8.5-11.6,12.7-17.5c4.6-6.4,5.4-13.4,1.7-20.4c-3.9-7.2-10.1-10.8-18.4-10.5c-2,0.1-4,0.6-5.9,1.2
	c-8.8,2.6-17.4,5.4-26.2,7.9c-14.7,4.3-29.5-4.8-31.2-19.9c-0.8-6.9-0.2-14.1,1-21c7-41.7,29.9-71.9,67.5-90.7
	c20.1-10,41.6-13.7,64-11.6c36.9,3.5,66.5,20.3,88.3,50.3C323.1,170.5,318.8,234.3,279.5,275.9L279.5,275.9z"/>
<path class="st1" d="M289.5,124.3c-21.8-29.9-51.3-46.8-88.3-50.3c-22.4-2.1-43.9,1.6-64,11.6c-37.7,18.8-60.5,49-67.5,90.7
	c-1.2,6.9-1.8,14.1-1,21c1.8,15.1,16.6,24.2,31.2,19.9c8.8-2.6,17.5-5.3,26.2-7.9c1.9-0.6,3.9-1.1,5.9-1.2
	c8.2-0.3,14.5,3.2,18.4,10.5c3.7,7,3,13.9-1.7,20.4c-4.2,5.9-8.7,11.5-12.7,17.5c-13.2,19.4-3.8,46,18.5,52.6
	c11.7,3.5,23.7,5.4,36,5.5h0c4.5-0.3,9.1-0.4,13.6-0.9c29.7-3.5,55-16.1,75.5-37.8C318.8,234.3,323.1,170.5,289.5,124.3L289.5,124.3
	z M215.4,304.8c-8.1,1.7-16.4,2.4-24.7,2.7h-0.1c-0.2,0-0.5,0-0.5,0c-11.5,0.1-22.7-1.6-33.6-5c-18-5.5-25.4-26.7-14.7-42.2
	c4.1-5.9,8.6-11.6,12.7-17.5c11.1-15.7,2.8-37-16-41c-4.6-1-9.2-0.7-13.7,0.7c-8.7,2.7-17.5,5.4-26.2,8c-11,3.3-22.1-3.2-23.1-14
	c-0.5-5.2-0.1-10.6,0.5-15.8c3.4-27.5,15.4-50.7,35.7-69.4c17.9-16.5,39-26.6,63.2-29.5c38.7-4.7,72,6.8,99.1,34.9
	c16.9,17.6,26.9,38.7,30,62.9C311.6,237.6,272.9,292.5,215.4,304.8z M190.1,307.5h0.4c0.1,0,0.1,0,0.2,0
	C190.5,307.5,190.1,307.5,190.1,307.5L190.1,307.5z"/>
<path class="st2" d="M304.1,179.5c-3.1-24.2-13.1-45.4-30-62.9c-27.1-28.1-60.4-39.6-99.1-34.9c-24.2,2.9-45.3,13-63.2,29.6
	c-20.3,18.8-32.3,42-35.7,69.4c-0.7,5.2-1,10.6-0.5,15.8c1,10.8,12.1,17.3,23.1,14c8.8-2.6,17.5-5.3,26.2-8
	c4.5-1.4,9.1-1.7,13.7-0.7c18.8,4,27.1,25.3,16,41c-4.2,5.9-8.6,11.6-12.7,17.5c-10.7,15.5-3.3,36.7,14.7,42.2
	c10.9,3.4,22.2,5,33.6,5c0,0,0.4,0,0.5,0h0.1c8.3-0.3,16.6-1,24.7-2.7C272.9,292.5,311.6,237.6,304.1,179.5L304.1,179.5z
	 M127.2,182.2c-12.5,0.1-22.7-10.2-22.7-22.8l0,0c0-12.6,10.1-22.7,22.7-22.8c12.5-0.1,22.7,10.2,22.7,22.8
	C149.9,172.1,139.9,182.2,127.2,182.2L127.2,182.2z M186,287.7c-12.3-0.1-22.5-10.4-22.4-22.8c0-12.5,10.2-22.7,22.8-22.6
	c12.6,0,22.7,10.1,22.6,22.7C208.9,277.7,198.7,287.8,186,287.7z M190.1,141.1c-12.5,0-22.6-10.2-22.6-22.8
	c0-12.6,10.2-22.7,22.8-22.6c12.6,0,22.7,10.2,22.6,22.8C212.9,131.1,202.8,141.1,190.1,141.1L190.1,141.1z M254.4,255.5
	c-12.5-0.1-22.5-10.4-22.4-23.1c0.1-12.4,10.3-22.4,22.8-22.4c12.6,0,22.7,10.2,22.6,22.8C277.4,245.6,267.2,255.6,254.4,255.5
	L254.4,255.5z M254.6,178.3c-12.6,0-22.7-10.4-22.6-23.1c0.1-12.4,10.4-22.4,22.8-22.3c12.6,0.1,22.6,10.2,22.6,22.8l0,0
	C277.3,168.3,267.2,178.4,254.6,178.3L254.6,178.3z"/>
<path class="st1" d="M127.2,136.7c-12.6,0.1-22.7,10.2-22.7,22.8l0,0c0,12.6,10.2,22.8,22.7,22.8c12.6-0.1,22.7-10.1,22.7-22.7
	C149.9,147,139.7,136.7,127.2,136.7L127.2,136.7z M138.3,170.7c-0.4,0.4-0.7,0.7-1.1,1c-2.7,2.3-6.2,3.6-10,3.6
	c-1.1,0-2.1-0.1-3.1-0.3c-0.5-0.1-1-0.2-1.5-0.4c-1-0.3-1.9-0.7-2.8-1.2c-0.9-0.5-1.7-1.1-2.5-1.7c-0.4-0.3-0.8-0.7-1.1-1
	c-2.8-2.8-4.6-6.8-4.6-11.1c0-2.7,0.7-5.3,1.9-7.6c0.2-0.4,0.5-0.9,0.8-1.3c0.1-0.2,0.3-0.4,0.4-0.6c0.3-0.4,0.6-0.8,0.9-1.2
	c0.2-0.2,0.3-0.4,0.5-0.6c2.8-2.9,6.7-4.6,10.9-4.7c8.7-0.1,15.9,6.9,16,15.7C143,163.8,141.2,167.8,138.3,170.7z"/>
<path class="st1" d="M254.8,210.1c-12.5,0-22.7,10-22.8,22.4c-0.1,12.6,9.9,22.9,22.4,23.1c12.8,0.1,23-9.9,23-22.6
	C277.5,220.2,267.4,210.1,254.8,210.1z M269.6,237.8c-0.2,0.7-0.5,1.4-0.9,2.1c-0.2,0.4-0.5,0.9-0.7,1.3c-0.3,0.4-0.5,0.8-0.9,1.2h0
	c-0.3,0.4-0.6,0.8-1,1.1c-2.2,2.3-5.1,4-8.5,4.6c-1.2,0.2-2.4,0.3-3.6,0.3c-8.6-0.2-15.3-7.4-15.1-16.2c0-1.6,0.3-3.1,0.8-4.6
	c0.8-2.4,2.1-4.5,3.9-6.2c2.9-2.8,6.9-4.6,11.3-4.4h0c2.4,0,4.7,0.6,6.7,1.6c0,0,0,0,0,0c1.4,0.7,2.6,1.5,3.7,2.5
	c0.2,0.2,0.4,0.3,0.5,0.5c2.9,2.9,4.6,7,4.5,11.5C270.4,234.8,270.1,236.4,269.6,237.8L269.6,237.8z"/>
<path class="st1" d="M186.4,242.3c-12.6-0.1-22.8,10.1-22.8,22.6c0,12.4,10.1,22.7,22.4,22.8c12.7,0.1,22.9-10,23-22.7
	C209.1,252.4,199,242.3,186.4,242.3z M195.1,278c-0.4,0.3-0.9,0.5-1.3,0.8c-0.4,0.2-0.9,0.5-1.4,0.7c-0.2,0.1-0.5,0.2-0.7,0.3
	c-0.5,0.2-1,0.3-1.5,0.5c-1.2,0.3-2.6,0.5-3.9,0.5c-4.3,0-8.3-1.7-11.1-4.6c-0.4-0.4-0.7-0.7-1-1.1c-0.5-0.6-0.9-1.2-1.3-1.8
	c-0.3-0.4-0.5-0.9-0.7-1.3c-0.2-0.4-0.4-0.8-0.5-1.2c-0.1-0.3-0.2-0.6-0.3-0.9c-0.1-0.4-0.3-0.9-0.4-1.4c0-0.1,0-0.2-0.1-0.3
	c-0.1-0.5-0.2-0.9-0.2-1.4c-0.1-0.5-0.1-1.1-0.1-1.6c0-1.7,0.2-3.3,0.7-4.8c0.1-0.2,0.2-0.5,0.2-0.7c0.6-1.7,1.5-3.3,2.6-4.6
	c0.3-0.4,0.6-0.8,1-1.1c1.6-1.6,3.5-2.9,5.7-3.7c0.2-0.1,0.5-0.2,0.7-0.2c1.5-0.5,3.1-0.7,4.7-0.7c3.7,0,7.1,1.3,9.7,3.4
	c0.3,0.2,0.6,0.5,0.9,0.8c3.2,2.9,5.2,7.1,5.2,11.8C202,270.4,199.3,275.2,195.1,278L195.1,278z"/>
<path class="st1" d="M190.3,95.7c-12.6,0-22.8,10.1-22.8,22.6c0,12.6,10.1,22.8,22.6,22.8s22.7-10,22.8-22.6
	C213,105.9,202.9,95.8,190.3,95.7L190.3,95.7z M201.3,129.6c-0.5,0.5-1.1,1-1.7,1.5c-2.7,2-6,3.1-9.6,3.1c-1.6,0-3.2-0.3-4.6-0.7
	c-0.2-0.1-0.5-0.2-0.7-0.2h0c-0.5-0.2-0.9-0.4-1.4-0.6c-0.5-0.2-0.9-0.5-1.3-0.7c-1.1-0.7-2-1.4-2.9-2.3c-2.8-2.8-4.5-6.8-4.5-11.2
	c0-1.4,0.2-2.7,0.5-3.9c0.3-1,0.6-2,1.1-2.9c0.2-0.5,0.5-0.9,0.7-1.3s0.5-0.8,0.8-1.2c0.4-0.6,0.9-1.2,1.5-1.7
	c2.8-2.8,6.7-4.5,11.1-4.5c1.9,0,3.8,0.3,5.5,0.9c0.5,0.2,0.9,0.4,1.4,0.6c1.1,0.6,2.2,1.2,3.2,2c0.4,0.3,0.8,0.7,1.1,1
	c2.9,2.8,4.6,6.8,4.6,11.2C205.9,122.9,204.2,126.8,201.3,129.6L201.3,129.6z"/>
<path class="st1" d="M277.4,155.7c0.1-12.6-9.9-22.7-22.6-22.8c-12.5-0.1-22.7,9.9-22.8,22.3c-0.1,12.7,10,23.1,22.6,23.1
	C267.2,178.4,277.4,168.3,277.4,155.7L277.4,155.7L277.4,155.7z M265.8,166.8c-2.9,2.9-6.9,4.6-11.3,4.6c-2.9,0-5.7-0.9-8.1-2.3
	c-1.1-0.7-2.1-1.4-2.9-2.3c-2.8-2.9-4.6-6.8-4.5-11.2l0,0c0-3.3,1-6.3,2.7-8.8c0.3-0.4,0.6-0.8,0.9-1.2c0.3-0.4,0.6-0.8,1-1.1
	c2.8-2.8,6.7-4.6,11.1-4.6c1.1,0,2.2,0.1,3.3,0.3c1,0.2,2,0.5,2.9,0.9c0.7,0.3,1.4,0.6,2,1c0.9,0.5,1.7,1.1,2.4,1.8
	c0.2,0.2,0.4,0.4,0.5,0.5c0.7,0.7,1.4,1.5,1.9,2.3c0.3,0.4,0.5,0.9,0.8,1.3c0.1,0.2,0.2,0.5,0.3,0.7c0.2,0.5,0.4,0.9,0.6,1.4
	c0.1,0.2,0.2,0.5,0.2,0.7c0.1,0.2,0.1,0.4,0.2,0.5c0.4,1.4,0.5,2.8,0.5,4.2C270.4,160,268.7,163.9,265.8,166.8L265.8,166.8z"/>
<path class="st3" d="M111.5,159.6c-0.1-8.7,6.9-15.8,15.5-15.9c8.7-0.1,15.9,6.9,15.9,15.7c0.1,8.8-7,15.9-15.7,15.9
	S111.6,168.2,111.5,159.6z"/>
<path class="st4" d="M255,217.1c8.8,0.2,15.6,7.3,15.4,16.2c-0.2,8.8-7.4,15.5-16.3,15.3c-8.6-0.2-15.3-7.4-15.1-16.2
	C239.2,223.7,246.3,216.9,255,217.1L255,217.1L255,217.1z"/>
<path class="st5" d="M186.3,280.7c-8.7,0-15.7-7-15.8-15.6c-0.1-8.8,7-15.9,15.7-15.9c8.8,0,15.9,7.1,15.8,15.9
	C202,273.7,195,280.7,186.3,280.7z"/>
<path class="st6" d="M174.5,118.3c0.1-8.7,7-15.6,15.7-15.6c8.9,0,15.8,7,15.7,15.8c0,8.8-7.1,15.7-15.9,15.6
	C181.3,134,174.4,127.1,174.5,118.3L174.5,118.3L174.5,118.3z"/>
<path class="st7" d="M239,155.5c0-8.7,7-15.6,15.7-15.7c8.7-0.1,15.8,7.1,15.8,15.9c0,8.8-7.1,15.8-15.9,15.7
	C245.9,171.3,239,164.2,239,155.5L239,155.5L239,155.5z"/>
</svg>
